<svg id="Layer_1" data-name="Layer 1" xmlns="http://www.w3.org/2000/svg" viewBox="0 0 400.36 205.95"><defs><style>.cls-1{fill:#fff;}.cls-2{fill:#fae900;}</style></defs><title>logo-ress2</title><path class="cls-1" d="M42.88,220.36H33.57v-1l1.1-.09a3.65,3.65,0,0,0,1-.17,1.32,1.32,0,0,0,.69-.54,1.76,1.76,0,0,0,.22-.93v-7.42H26v7.26a1.86,1.86,0,0,0,.18.86,1.53,1.53,0,0,0,.71.62,4.51,4.51,0,0,0,1,.26,7.51,7.51,0,0,0,1.08.15v1H19.65v-1c.26,0,.63,0,1.1-.09a3.57,3.57,0,0,0,1-.17,1.28,1.28,0,0,0,.69-.54,1.76,1.76,0,0,0,.23-.93v-15a1.79,1.79,0,0,0-.21-.86,1.39,1.39,0,0,0-.71-.6,5.4,5.4,0,0,0-1-.34,6.34,6.34,0,0,0-1.06-.18v-1H29v1a9.12,9.12,0,0,0-1.08.13c-.43.08-.74.16-1,.22a1.1,1.1,0,0,0-.71.59,2.21,2.21,0,0,0-.18.89v6.47H36.57v-6.32a1.79,1.79,0,0,0-.21-.86,1.36,1.36,0,0,0-.7-.6,5.52,5.52,0,0,0-1-.34,6.24,6.24,0,0,0-1-.18v-1h9.31v1a8.66,8.66,0,0,0-1.08.13c-.43.08-.75.16-1,.22a1.09,1.09,0,0,0-.72.59,2.21,2.21,0,0,0-.18.89v15a1.86,1.86,0,0,0,.18.86,1.51,1.51,0,0,0,.72.62,4.33,4.33,0,0,0,1,.26,7.51,7.51,0,0,0,1.08.15Z" transform="translate(-19.58 -20.94)"/><path class="cls-1" d="M59.48,217a7.71,7.71,0,0,1-2.62,2.76,7,7,0,0,1-3.78,1,8.23,8.23,0,0,1-3.3-.62,6.38,6.38,0,0,1-2.33-1.68A7,7,0,0,1,46.08,216a9.68,9.68,0,0,1-.45-3,8.22,8.22,0,0,1,.48-2.76,7.82,7.82,0,0,1,1.42-2.45,6.71,6.71,0,0,1,2.23-1.67,6.81,6.81,0,0,1,3-.65,7.81,7.81,0,0,1,2.93.5,5.19,5.19,0,0,1,2,1.37,5.28,5.28,0,0,1,1.09,1.94,8.18,8.18,0,0,1,.35,2.42v1H48.78a10.37,10.37,0,0,0,.29,2.59,5.9,5.9,0,0,0,.93,2.05,4.23,4.23,0,0,0,1.61,1.34,5.25,5.25,0,0,0,2.37.49,4.53,4.53,0,0,0,2.43-.61,6.32,6.32,0,0,0,2-2.21ZM56,211.43a11.08,11.08,0,0,0-.15-1.75,4.92,4.92,0,0,0-.49-1.57,3.08,3.08,0,0,0-1-1.1,2.9,2.9,0,0,0-1.63-.42A3.49,3.49,0,0,0,50,207.87a5.7,5.7,0,0,0-1.19,3.56Z" transform="translate(-19.58 -20.94)"/><path class="cls-1" d="M76.05,220.09c-.49.17-.93.31-1.3.41a5,5,0,0,1-1.28.16,3.23,3.23,0,0,1-2-.54,2.47,2.47,0,0,1-1-1.56h-.09a7.81,7.81,0,0,1-2.2,1.61,6.5,6.5,0,0,1-2.85.56,4.28,4.28,0,0,1-2.88-1,3.36,3.36,0,0,1-1.13-2.62,3.93,3.93,0,0,1,.26-1.5,3.47,3.47,0,0,1,.75-1.19,3.83,3.83,0,0,1,1-.78,8.36,8.36,0,0,1,1.21-.55c.48-.17,1.44-.48,2.89-.93a21.23,21.23,0,0,0,2.93-1.06v-1.45a5.13,5.13,0,0,0-.08-.74,3,3,0,0,0-.38-1,3,3,0,0,0-.89-.94,2.8,2.8,0,0,0-1.63-.41,4,4,0,0,0-1.36.23,2.5,2.5,0,0,0-.87.48,4.12,4.12,0,0,0,.14.86,4.3,4.3,0,0,1,.15,1.07,1.25,1.25,0,0,1-.49.94,2.15,2.15,0,0,1-1.39.42,1.33,1.33,0,0,1-1.16-.52,1.94,1.94,0,0,1,.15-2.46,4.92,4.92,0,0,1,1.33-1.1,8,8,0,0,1,3.7-1,13.09,13.09,0,0,1,2.32.18,4.39,4.39,0,0,1,1.79.72,3.38,3.38,0,0,1,1.23,1.48,5.82,5.82,0,0,1,.41,2.4c0,1.39,0,2.63,0,3.72s-.05,2.26-.05,3.54a1.68,1.68,0,0,0,.21.91,1.89,1.89,0,0,0,.66.58,1.72,1.72,0,0,0,.75.14c.34,0,.69,0,1,0Zm-5.51-7.75c-.9.25-1.69.49-2.36.73a9.33,9.33,0,0,0-1.89.88,4.13,4.13,0,0,0-1.24,1.18,2.85,2.85,0,0,0-.46,1.64,2.22,2.22,0,0,0,.69,1.79,2.64,2.64,0,0,0,1.74.57,3.89,3.89,0,0,0,2-.51,5.48,5.48,0,0,0,1.44-1.2Z" transform="translate(-19.58 -20.94)"/><path class="cls-1" d="M84.91,220.36H77.3v-1c.24,0,.51,0,.78-.07a2.74,2.74,0,0,0,.67-.11,1.13,1.13,0,0,0,.67-.46,1.47,1.47,0,0,0,.22-.85V201.12a2.17,2.17,0,0,0-.24-1,2,2,0,0,0-.65-.72,3.3,3.3,0,0,0-1-.33c-.5-.1-.91-.15-1.21-.18V198l5.86-.32.22.22v19.87a1.54,1.54,0,0,0,.21.84,1.26,1.26,0,0,0,.66.51,3.68,3.68,0,0,0,.69.22,4.24,4.24,0,0,0,.77.1Z" transform="translate(-19.58 -20.94)"/><path class="cls-1" d="M96.49,219.74c-.68.25-1.33.47-1.94.66a8.42,8.42,0,0,1-2.24.27,3.51,3.51,0,0,1-2.76-.92,3.79,3.79,0,0,1-.8-2.59v-9.81H85.93v-1.41h2.88v-4.5h2.88v4.5h4.47v1.41H91.72v8.09c0,.61,0,1.11.07,1.52a2.7,2.7,0,0,0,.34,1.07,1.56,1.56,0,0,0,.76.64,3.42,3.42,0,0,0,1.36.22c.26,0,.65,0,1.16-.06a6.38,6.38,0,0,0,1.08-.17Z" transform="translate(-19.58 -20.94)"/><path class="cls-1" d="M115,220.36h-7.66v-1l.8-.06a2.77,2.77,0,0,0,.73-.12,1.09,1.09,0,0,0,.65-.46,1.47,1.47,0,0,0,.22-.85v-7.45a3.31,3.31,0,0,0-.79-2.37,2.51,2.51,0,0,0-1.91-.84,4.76,4.76,0,0,0-1.53.24,5.24,5.24,0,0,0-1.26.6,3.53,3.53,0,0,0-.82.73,4.94,4.94,0,0,0-.44.62v8.32a1.28,1.28,0,0,0,.86,1.32,3.73,3.73,0,0,0,.72.22,5,5,0,0,0,.82.1v1H97.76v-1c.24,0,.5,0,.75-.07a2.92,2.92,0,0,0,.67-.11,1.12,1.12,0,0,0,.65-.46,1.47,1.47,0,0,0,.22-.85V201a2.26,2.26,0,0,0-.24-1,1.84,1.84,0,0,0-.64-.75,2.3,2.3,0,0,0-1-.27c-.47-.06-.87-.09-1.16-.12V198l5.77-.32.23.22V208h.06c.34-.33.66-.62,1-.86a7.13,7.13,0,0,1,1.12-.79,6.66,6.66,0,0,1,1.42-.59,6.83,6.83,0,0,1,1.83-.23,4.15,4.15,0,0,1,3.21,1.22,5.07,5.07,0,0,1,1.13,3.54v7.53a1.45,1.45,0,0,0,.2.82,1.24,1.24,0,0,0,.66.5,4.24,4.24,0,0,0,.66.19,3.52,3.52,0,0,0,.77.1Z" transform="translate(-19.58 -20.94)"/><path class="cls-1" d="M146.56,208.21a9.06,9.06,0,0,0-1.89.34,2.86,2.86,0,0,0-1.45.86,4.25,4.25,0,0,0-.67,1l-.82,1.63c-.31.63-.63,1.25-1,1.85a10.65,10.65,0,0,1-1.26,1.82,20.55,20.55,0,0,0,1.55,1.54,10,10,0,0,0,1.56,1.2,7.21,7.21,0,0,0,1.8.57,13.22,13.22,0,0,0,1.89.26v1H139.8l-2.35-2.49c-.35.35-.75.72-1.19,1.08a9.54,9.54,0,0,1-1.42,1,9.65,9.65,0,0,1-1.65.69,7.1,7.1,0,0,1-1.95.25,8.79,8.79,0,0,1-2.33-.32,6.38,6.38,0,0,1-2.1-1,5.06,5.06,0,0,1-1.49-1.74,5.14,5.14,0,0,1-.57-2.51,5.68,5.68,0,0,1,1-3.31,12.53,12.53,0,0,1,3.86-3.12,28.15,28.15,0,0,1-2-2.72,4.8,4.8,0,0,1-.71-2.57,3.87,3.87,0,0,1,.44-1.86,4.39,4.39,0,0,1,1.22-1.47,5.36,5.36,0,0,1,1.77-.9,7.31,7.31,0,0,1,2.12-.32,6.07,6.07,0,0,1,2.22.38,4.32,4.32,0,0,1,1.56,1,3.69,3.69,0,0,1,.84,1.29,3.86,3.86,0,0,1,.3,1.47,4.3,4.3,0,0,1-1.18,3,10.66,10.66,0,0,1-3.24,2.28c1,1.24,2,2.39,2.91,3.41s1.86,2,2.73,3a17.2,17.2,0,0,0,1.64-3,6.4,6.4,0,0,0,.58-2.45c0-.31-.24-.56-.73-.73a13,13,0,0,0-2-.52v-1h8.46Zm-9.95,8.8c-1-1.15-2.08-2.41-3.32-3.79s-2.2-2.54-2.94-3.49a4.8,4.8,0,0,0-1.81,1.93,5.88,5.88,0,0,0-.53,2.54,4.72,4.72,0,0,0,1.22,3.31,4.29,4.29,0,0,0,3.28,1.31,5.83,5.83,0,0,0,2.27-.46A4.54,4.54,0,0,0,136.61,217Zm-1.23-13.58a3.4,3.4,0,0,0-.71-2.3,2.58,2.58,0,0,0-2-.8,2.38,2.38,0,0,0-1.23.29,2.67,2.67,0,0,0-.83.7,2.48,2.48,0,0,0-.46.88,2.82,2.82,0,0,0-.15.84,4.33,4.33,0,0,0,.57,2.05,17.64,17.64,0,0,0,1.77,2.5,6.82,6.82,0,0,0,2.34-1.84A3.83,3.83,0,0,0,135.38,203.43Z" transform="translate(-19.58 -20.94)"/><path class="cls-1" d="M169.89,210.81a4.8,4.8,0,0,1,1.06,1.6,5.8,5.8,0,0,1,.33,2,5.64,5.64,0,0,1-2.19,4.56,8.39,8.39,0,0,1-5.46,1.78,10.72,10.72,0,0,1-3-.43,11.36,11.36,0,0,1-2.6-1l-.68,1.08h-1.26l-.22-7.15h1.28a14.49,14.49,0,0,0,.92,2.4,8.22,8.22,0,0,0,1.4,2,6.3,6.3,0,0,0,1.92,1.39,6.06,6.06,0,0,0,2.56.51,6.37,6.37,0,0,0,1.9-.26,3.26,3.26,0,0,0,1.32-.76,3,3,0,0,0,.76-1.14,4.54,4.54,0,0,0,.24-1.5,4,4,0,0,0-.76-2.33,4.54,4.54,0,0,0-2.26-1.64l-2.36-.84c-.88-.31-1.64-.6-2.29-.87a7.42,7.42,0,0,1-2.95-2.08,5.11,5.11,0,0,1-1.05-3.35,4.8,4.8,0,0,1,.52-2.22,5.87,5.87,0,0,1,1.49-1.84,7.16,7.16,0,0,1,2.16-1.19,7.85,7.85,0,0,1,2.61-.43,8,8,0,0,1,2.78.44,13.16,13.16,0,0,1,2.24,1l.64-1h1.27l.12,6.93h-1.28a23.42,23.42,0,0,0-.78-2.28,7.66,7.66,0,0,0-1.13-2,5.1,5.1,0,0,0-1.66-1.36,5.29,5.29,0,0,0-2.4-.51,3.81,3.81,0,0,0-2.56.9,2.76,2.76,0,0,0-1.06,2.18,3.62,3.62,0,0,0,.67,2.25,5,5,0,0,0,2,1.46c.77.34,1.53.63,2.27.88s1.46.52,2.16.81a13.92,13.92,0,0,1,1.83.87A6.76,6.76,0,0,1,169.89,210.81Z" transform="translate(-19.58 -20.94)"/><path class="cls-1" d="M188.46,220.09c-.5.17-.94.31-1.31.41a4.9,4.9,0,0,1-1.27.16,3.26,3.26,0,0,1-2-.54,2.42,2.42,0,0,1-.94-1.56h-.1a7.67,7.67,0,0,1-2.2,1.61,6.48,6.48,0,0,1-2.84.56,4.29,4.29,0,0,1-2.89-1,3.36,3.36,0,0,1-1.13-2.62,4.14,4.14,0,0,1,.26-1.5,3.5,3.5,0,0,1,.76-1.19,3.77,3.77,0,0,1,1-.78,8.45,8.45,0,0,1,1.22-.55q.71-.25,2.88-.93a22.07,22.07,0,0,0,2.94-1.06v-1.45a4.69,4.69,0,0,0-.1-.74,2.76,2.76,0,0,0-.36-1,3,3,0,0,0-.89-.94,2.86,2.86,0,0,0-1.64-.41,3.9,3.9,0,0,0-1.35.23,2.56,2.56,0,0,0-.88.48,3.67,3.67,0,0,0,.15.86,4.3,4.3,0,0,1,.15,1.07,1.27,1.27,0,0,1-.5.94,2.12,2.12,0,0,1-1.38.42,1.34,1.34,0,0,1-1.17-.52,2,2,0,0,1-.36-1.17,1.94,1.94,0,0,1,.51-1.29,5.07,5.07,0,0,1,1.33-1.1,8,8,0,0,1,3.7-1,13.09,13.09,0,0,1,2.32.18,4.43,4.43,0,0,1,1.8.72,3.43,3.43,0,0,1,1.22,1.48,5.8,5.8,0,0,1,.42,2.4c0,1.39,0,2.63,0,3.72s-.05,2.26-.05,3.54a1.67,1.67,0,0,0,.22.91,1.77,1.77,0,0,0,.65.58,1.72,1.72,0,0,0,.75.14c.35,0,.7,0,1.06,0Zm-5.52-7.75c-.9.25-1.68.49-2.36.73a9.24,9.24,0,0,0-1.88.88,4.17,4.17,0,0,0-1.25,1.18,2.92,2.92,0,0,0-.46,1.64,2.22,2.22,0,0,0,.69,1.79,2.65,2.65,0,0,0,1.75.57,3.82,3.82,0,0,0,2-.51,5.48,5.48,0,0,0,1.44-1.2Z" transform="translate(-19.58 -20.94)"/><path class="cls-1" d="M201.61,199.4a1.68,1.68,0,0,1-.38,1.11,1.43,1.43,0,0,1-1.16.46,2,2,0,0,1-.86-.19,3,3,0,0,1-.69-.52,5,5,0,0,1-.58-.74l-.45-.66a1.91,1.91,0,0,0-1.64,1.37,11.28,11.28,0,0,0-.58,4.23v1.48h4v1.41h-4v10.4a1.54,1.54,0,0,0,.21.84,1.35,1.35,0,0,0,.68.48,5.38,5.38,0,0,0,1,.22c.42,0,.78.09,1.09.1v1H190v-1l.75-.06a2.59,2.59,0,0,0,.67-.12,1.11,1.11,0,0,0,.66-.46,1.55,1.55,0,0,0,.21-.85V207.35h-3.09v-1.41h3.09V205a7.67,7.67,0,0,1,1.84-5.34,6,6,0,0,1,4.61-2.05,3.64,3.64,0,0,1,2.12.52A1.51,1.51,0,0,1,201.61,199.4Z" transform="translate(-19.58 -20.94)"/><path class="cls-1" d="M214.39,217a7.74,7.74,0,0,1-2.63,2.76,7,7,0,0,1-3.78,1,8.18,8.18,0,0,1-3.29-.62,6.42,6.42,0,0,1-2.34-1.68A7,7,0,0,1,201,216a9.68,9.68,0,0,1-.45-3,8.24,8.24,0,0,1,.49-2.76,7.79,7.79,0,0,1,1.41-2.45,6.65,6.65,0,0,1,2.24-1.67,6.8,6.8,0,0,1,3-.65,7.77,7.77,0,0,1,2.93.5,5.31,5.31,0,0,1,2,1.37,5.41,5.41,0,0,1,1.08,1.94,7.87,7.87,0,0,1,.36,2.42v1H203.68a10.37,10.37,0,0,0,.29,2.59,6.29,6.29,0,0,0,.93,2.05,4.31,4.31,0,0,0,1.61,1.34,5.28,5.28,0,0,0,2.37.49,4.53,4.53,0,0,0,2.43-.61,6.23,6.23,0,0,0,2-2.21Zm-3.5-5.53a11.08,11.08,0,0,0-.15-1.75,5.19,5.19,0,0,0-.48-1.57,3.2,3.2,0,0,0-1-1.1,2.88,2.88,0,0,0-1.63-.42,3.52,3.52,0,0,0-2.76,1.28,5.7,5.7,0,0,0-1.19,3.56Z" transform="translate(-19.58 -20.94)"/><path class="cls-1" d="M225.82,219.74c-.69.25-1.33.47-1.94.66a8.55,8.55,0,0,1-2.25.27,3.51,3.51,0,0,1-2.76-.92,3.84,3.84,0,0,1-.8-2.59v-9.81h-2.81v-1.41h2.87v-4.5H221v4.5h4.47v1.41H221v8.09a10.88,10.88,0,0,0,.08,1.52,2.69,2.69,0,0,0,.33,1.07,1.58,1.58,0,0,0,.77.64,3.33,3.33,0,0,0,1.35.22q.39,0,1.17-.06a7.2,7.2,0,0,0,1.08-.17Z" transform="translate(-19.58 -20.94)"/><path class="cls-1" d="M226.18,225.1a1.69,1.69,0,0,1,.44-1.2,1.4,1.4,0,0,1,1.08-.46,2.08,2.08,0,0,1,.87.17,2.65,2.65,0,0,1,.65.46,4.1,4.1,0,0,1,.5.59l.43.62a5.84,5.84,0,0,0,1.89-2.06,17.24,17.24,0,0,0,1.59-2.93c-1-2.33-1.91-4.4-2.72-6.23l-2.54-5.68a2.21,2.21,0,0,0-1-1,4.42,4.42,0,0,0-1.42-.48v-1h7.12v1a4.43,4.43,0,0,0-1.14.18c-.44.11-.67.24-.67.39a1.57,1.57,0,0,0,.07.29l.17.43c.4,1,1,2.36,1.83,4.18s1.46,3.28,1.9,4.38c.48-1.05,1-2.13,1.49-3.25s1.08-2.44,1.72-4c.07-.2.17-.45.31-.78a2.15,2.15,0,0,0,.21-.84c0-.26-.25-.5-.72-.71a4.29,4.29,0,0,0-1.37-.4v-.94h5.79v.91a3.77,3.77,0,0,0-1.25.5,2.76,2.76,0,0,0-1.16,1.23q-1.87,4-3.34,7.38c-1,2.23-1.71,3.86-2.22,4.91a25.54,25.54,0,0,1-1.78,3.21,9.9,9.9,0,0,1-1.52,1.82,4.77,4.77,0,0,1-1.32.82,3.47,3.47,0,0,1-1.23.22,3.08,3.08,0,0,1-1.93-.54A1.56,1.56,0,0,1,226.18,225.1Z" transform="translate(-19.58 -20.94)"/><path class="cls-1" d="M261.4,220.86a10.33,10.33,0,0,1-3.85-.73,10,10,0,0,1-3.26-2.12,10.14,10.14,0,0,1-2.24-3.37,11.41,11.41,0,0,1-.84-4.49,11.72,11.72,0,0,1,.83-4.53,10.33,10.33,0,0,1,2.27-3.5,9.83,9.83,0,0,1,3.4-2.26,11.69,11.69,0,0,1,7.18-.41,11.78,11.78,0,0,1,2.56,1.08l.65-1h1.26l.14,7.43h-1.29a16.68,16.68,0,0,0-.76-2.35,8.74,8.74,0,0,0-1.19-2.15,5.47,5.47,0,0,0-1.8-1.56,4.9,4.9,0,0,0-2.38-.57,6.53,6.53,0,0,0-2.85.63,6.37,6.37,0,0,0-2.28,1.87,9,9,0,0,0-1.44,3,15.27,15.27,0,0,0-.52,4.1,11.83,11.83,0,0,0,.54,3.67,9.4,9.4,0,0,0,1.56,2.94,7.31,7.31,0,0,0,2.39,1.94,6.68,6.68,0,0,0,3.08.71,7.35,7.35,0,0,0,2.36-.37,6.52,6.52,0,0,0,1.87-1,7.75,7.75,0,0,0,1.39-1.47,8.86,8.86,0,0,0,1-1.79l1.18.52a9.27,9.27,0,0,1-3.6,4.43A10.27,10.27,0,0,1,261.4,220.86Z" transform="translate(-19.58 -20.94)"/><path class="cls-1" d="M287.12,213a8.85,8.85,0,0,1-.52,3,7.22,7.22,0,0,1-1.49,2.51,7,7,0,0,1-2.54,1.74,8.67,8.67,0,0,1-3.22.57,7.78,7.78,0,0,1-2.84-.52,7.14,7.14,0,0,1-4-3.92,8.08,8.08,0,0,1-.61-3.18,7.61,7.61,0,0,1,2.13-5.55,8.23,8.23,0,0,1,11-.11A7.24,7.24,0,0,1,287.12,213Zm-3.27,0a13,13,0,0,0-.24-2.32,7,7,0,0,0-.72-2.08,4.14,4.14,0,0,0-1.32-1.46,3.55,3.55,0,0,0-2-.55,3.76,3.76,0,0,0-2.08.56,4.31,4.31,0,0,0-1.41,1.52,6.74,6.74,0,0,0-.71,2,13.38,13.38,0,0,0,0,4.83,7.18,7.18,0,0,0,.79,2.14,4.49,4.49,0,0,0,1.35,1.48,3.68,3.68,0,0,0,2,.53,3.59,3.59,0,0,0,3.14-1.78A8.94,8.94,0,0,0,283.85,213Z" transform="translate(-19.58 -20.94)"/><path class="cls-1" d="M306.58,220.36H299v-1l.8-.06a2.76,2.76,0,0,0,.72-.12,1.14,1.14,0,0,0,.66-.46,1.55,1.55,0,0,0,.21-.85v-7.45a3.31,3.31,0,0,0-.79-2.37,2.51,2.51,0,0,0-1.9-.84,4.65,4.65,0,0,0-1.54.24,4.93,4.93,0,0,0-1.24.6,3.34,3.34,0,0,0-.83.72,5.58,5.58,0,0,0-.46.63v8.32a1.32,1.32,0,0,0,.89,1.32,3.18,3.18,0,0,0,.72.22,5.3,5.3,0,0,0,.8.1v1h-7.64v-1l.75-.06a2.44,2.44,0,0,0,.67-.12,1.08,1.08,0,0,0,.66-.46,1.55,1.55,0,0,0,.22-.85V209a1.8,1.8,0,0,0-.24-.92,1.74,1.74,0,0,0-.64-.68,2.22,2.22,0,0,0-.7-.26,7.64,7.64,0,0,0-.9-.11v-1l5.19-.34.22.22v2h.08c.25-.24.57-.52.95-.85a7.45,7.45,0,0,1,1.08-.8,6.39,6.39,0,0,1,1.39-.59,6.76,6.76,0,0,1,1.82-.23,4.09,4.09,0,0,1,3.33,1.3,5.23,5.23,0,0,1,1.08,3.46v7.53a1.53,1.53,0,0,0,.19.82,1.22,1.22,0,0,0,.65.5,3.86,3.86,0,0,0,.65.2,4.41,4.41,0,0,0,.77.09Z" transform="translate(-19.58 -20.94)"/><path class="cls-1" d="M318.79,213.27a3.81,3.81,0,0,1,1,1.22,3.64,3.64,0,0,1,.35,1.69,4,4,0,0,1-1.62,3.29,6.59,6.59,0,0,1-4.2,1.28,6.74,6.74,0,0,1-2.5-.46,6.87,6.87,0,0,1-1.64-.84l-.32,1h-1.19l-.15-5h1.09a4.93,4.93,0,0,0,.54,1.34,6,6,0,0,0,1,1.38,5.65,5.65,0,0,0,1.48,1.1,4.23,4.23,0,0,0,1.94.44,3.72,3.72,0,0,0,2.34-.65,2.18,2.18,0,0,0,.82-1.84,2.13,2.13,0,0,0-.26-1.06,2.29,2.29,0,0,0-.77-.78,5.26,5.26,0,0,0-1.28-.61c-.51-.19-1.07-.36-1.69-.55a12.89,12.89,0,0,1-1.65-.56,7.17,7.17,0,0,1-1.56-.84,4.29,4.29,0,0,1-1.14-1.26,3.47,3.47,0,0,1-.44-1.77,3.81,3.81,0,0,1,1.42-3,5.63,5.63,0,0,1,3.81-1.24,8.76,8.76,0,0,1,1.88.22,7.31,7.31,0,0,1,1.55.53l.37-.76h1.13l.24,4.66h-1.09a4.51,4.51,0,0,0-1.43-2.55,3.88,3.88,0,0,0-2.68-1,3.18,3.18,0,0,0-2,.6,1.84,1.84,0,0,0-.74,1.47,2.29,2.29,0,0,0,.24,1.1,2.2,2.2,0,0,0,.74.75,5.66,5.66,0,0,0,1.2.55c.47.17,1.07.36,1.77.58a17.5,17.5,0,0,1,2,.72A6.65,6.65,0,0,1,318.79,213.27Z" transform="translate(-19.58 -20.94)"/><path class="cls-1" d="M339.2,220.09l-5.09.33-.24-.21v-1.83h-.09l-.85.79a6.06,6.06,0,0,1-1.1.75,7,7,0,0,1-1.37.61,6.94,6.94,0,0,1-1.87.2,4,4,0,0,1-3.16-1.25,5.5,5.5,0,0,1-1.08-3.65V208.9a1.71,1.71,0,0,0-.21-.88,1.87,1.87,0,0,0-.63-.62,2,2,0,0,0-.72-.26,8.2,8.2,0,0,0-.9-.11v-1l5.2-.36.23.22V216a3.36,3.36,0,0,0,.76,2.37,2.48,2.48,0,0,0,1.82.79,4.48,4.48,0,0,0,1.56-.25,4.42,4.42,0,0,0,1.13-.59,4.8,4.8,0,0,0,.75-.65,3.63,3.63,0,0,0,.5-.64v-8.2a1.61,1.61,0,0,0-.22-.85,2.12,2.12,0,0,0-.62-.65,1.91,1.91,0,0,0-.84-.2L330.9,207v-1l5.67-.36.24.22V217.4a1.63,1.63,0,0,0,.22.85,1.88,1.88,0,0,0,.62.6,1.94,1.94,0,0,0,.68.21,7.3,7.3,0,0,0,.87.07Z" transform="translate(-19.58 -20.94)"/><path class="cls-1" d="M348.42,220.36h-7.6v-1c.24,0,.49,0,.76-.07a3,3,0,0,0,.69-.11,1.14,1.14,0,0,0,.66-.46,1.47,1.47,0,0,0,.22-.85V201.12a2.17,2.17,0,0,0-.24-1,2,2,0,0,0-.64-.72,3.39,3.39,0,0,0-1-.33c-.5-.1-.91-.15-1.21-.18V198l5.86-.32.22.22v19.87a1.54,1.54,0,0,0,.21.84,1.34,1.34,0,0,0,.66.51,4.21,4.21,0,0,0,.69.22,4.36,4.36,0,0,0,.77.1Z" transform="translate(-19.58 -20.94)"/><path class="cls-1" d="M360,219.74c-.69.25-1.34.47-1.94.66a8.55,8.55,0,0,1-2.25.27,3.51,3.51,0,0,1-2.76-.92,3.84,3.84,0,0,1-.8-2.59v-9.81h-2.81v-1.41h2.87v-4.5h2.88v4.5h4.48v1.41h-4.45v8.09a12.94,12.94,0,0,0,.07,1.52,2.7,2.7,0,0,0,.34,1.07,1.6,1.6,0,0,0,.76.64,3.45,3.45,0,0,0,1.36.22c.26,0,.66,0,1.17-.06a7.2,7.2,0,0,0,1.08-.17Z" transform="translate(-19.58 -20.94)"/><path class="cls-1" d="M376.33,220.09c-.5.17-.93.31-1.31.41a4.9,4.9,0,0,1-1.27.16,3.26,3.26,0,0,1-2-.54,2.46,2.46,0,0,1-.94-1.56h-.1a7.53,7.53,0,0,1-2.2,1.61,6.48,6.48,0,0,1-2.84.56,4.29,4.29,0,0,1-2.89-1,3.39,3.39,0,0,1-1.12-2.62,4.37,4.37,0,0,1,.24-1.5,3.53,3.53,0,0,1,.77-1.19,3.77,3.77,0,0,1,1-.78,8.45,8.45,0,0,1,1.22-.55c.47-.17,1.43-.48,2.89-.93a21.47,21.47,0,0,0,2.92-1.06v-1.45a5.13,5.13,0,0,0-.08-.74,3,3,0,0,0-.38-1,2.9,2.9,0,0,0-.88-.94,2.86,2.86,0,0,0-1.64-.41,3.9,3.9,0,0,0-1.35.23,2.56,2.56,0,0,0-.88.48,3.67,3.67,0,0,0,.15.86,4.3,4.3,0,0,1,.15,1.07,1.27,1.27,0,0,1-.5.94,2.12,2.12,0,0,1-1.38.42,1.34,1.34,0,0,1-1.17-.52,1.94,1.94,0,0,1,.15-2.46,4.82,4.82,0,0,1,1.34-1.1,7.07,7.07,0,0,1,1.72-.7,7.23,7.23,0,0,1,2-.29,13.09,13.09,0,0,1,2.32.18,4.43,4.43,0,0,1,1.8.72,3.43,3.43,0,0,1,1.22,1.48,5.8,5.8,0,0,1,.42,2.4c0,1.39,0,2.63-.05,3.72s-.05,2.26-.05,3.54a1.59,1.59,0,0,0,.22.91,1.77,1.77,0,0,0,.65.58,1.72,1.72,0,0,0,.75.14c.35,0,.7,0,1.06,0Zm-5.52-7.75c-.9.25-1.69.49-2.36.73a9.24,9.24,0,0,0-1.88.88,4.06,4.06,0,0,0-1.25,1.18,2.85,2.85,0,0,0-.46,1.64,2.22,2.22,0,0,0,.69,1.79,2.65,2.65,0,0,0,1.75.57,3.82,3.82,0,0,0,2-.51,5.48,5.48,0,0,0,1.44-1.2Z" transform="translate(-19.58 -20.94)"/><path class="cls-1" d="M395.09,220.36h-7.62v-1l.8-.06a2.69,2.69,0,0,0,.72-.12,1.14,1.14,0,0,0,.66-.46,1.55,1.55,0,0,0,.21-.85v-7.45a3.35,3.35,0,0,0-.78-2.37,2.55,2.55,0,0,0-1.92-.84,4.74,4.74,0,0,0-1.54.24,5,5,0,0,0-1.23.6,3.53,3.53,0,0,0-.83.72,4.33,4.33,0,0,0-.45.63v8.32a1.39,1.39,0,0,0,.22.82,1.43,1.43,0,0,0,.66.5,3.35,3.35,0,0,0,.72.22,5.47,5.47,0,0,0,.8.1v1h-7.63v-1l.75-.06a2.67,2.67,0,0,0,.67-.12,1.14,1.14,0,0,0,.66-.46,1.55,1.55,0,0,0,.21-.85V209a1.9,1.9,0,0,0-.23-.92,1.82,1.82,0,0,0-.64-.68,2.38,2.38,0,0,0-.71-.26,8,8,0,0,0-.89-.11v-1l5.19-.34.22.22v2h.08c.25-.24.57-.52.94-.85a8.73,8.73,0,0,1,1.08-.8,6.39,6.39,0,0,1,1.39-.59,6.76,6.76,0,0,1,1.82-.23,4,4,0,0,1,3.32,1.3,5.18,5.18,0,0,1,1.09,3.46v7.53a1.53,1.53,0,0,0,.19.82,1.25,1.25,0,0,0,.65.5,3.94,3.94,0,0,0,.66.2,4.16,4.16,0,0,0,.76.09Z" transform="translate(-19.58 -20.94)"/><path class="cls-1" d="M406.64,219.74q-1,.38-1.95.66a8.44,8.44,0,0,1-2.25.27,3.54,3.54,0,0,1-2.76-.92,3.84,3.84,0,0,1-.8-2.59v-9.81h-2.81v-1.41H399v-4.5h2.88v4.5h4.47v1.41h-4.44v8.09c0,.61,0,1.11.07,1.52a2.7,2.7,0,0,0,.34,1.07,1.56,1.56,0,0,0,.76.64,3.42,3.42,0,0,0,1.36.22c.26,0,.65,0,1.16-.06a7.17,7.17,0,0,0,1.09-.17Z" transform="translate(-19.58 -20.94)"/><path class="cls-1" d="M418.48,213.27a3.81,3.81,0,0,1,1,1.22,3.64,3.64,0,0,1,.35,1.69,4,4,0,0,1-1.62,3.29,6.58,6.58,0,0,1-4.19,1.28,6.89,6.89,0,0,1-2.52-.46,7.41,7.41,0,0,1-1.63-.84l-.31,1h-1.19l-.16-5h1.09a5.67,5.67,0,0,0,.54,1.34,6.29,6.29,0,0,0,1,1.38,5.65,5.65,0,0,0,1.48,1.1,4.23,4.23,0,0,0,1.94.44,3.72,3.72,0,0,0,2.34-.65,2.18,2.18,0,0,0,.82-1.84,2,2,0,0,0-.26-1.06,2.29,2.29,0,0,0-.77-.78,5.45,5.45,0,0,0-1.28-.61c-.5-.19-1.07-.36-1.69-.55a12.89,12.89,0,0,1-1.65-.56,6.94,6.94,0,0,1-1.56-.84,4.43,4.43,0,0,1-1.14-1.26,3.47,3.47,0,0,1-.44-1.77,3.85,3.85,0,0,1,1.42-3,5.63,5.63,0,0,1,3.81-1.24,8.83,8.83,0,0,1,1.88.22,7.12,7.12,0,0,1,1.55.53l.37-.76h1.14l.23,4.66h-1.09a4.51,4.51,0,0,0-1.43-2.55,3.9,3.9,0,0,0-2.68-1,3.18,3.18,0,0,0-2,.6,1.87,1.87,0,0,0-.74,1.47,2.29,2.29,0,0,0,.24,1.1,2.2,2.2,0,0,0,.74.75,6.17,6.17,0,0,0,1.2.55c.48.17,1.06.36,1.77.58a17.68,17.68,0,0,1,2,.72A6.79,6.79,0,0,1,418.48,213.27Z" transform="translate(-19.58 -20.94)"/><path class="cls-1" d="M118.68,106.83a57.17,57.17,0,0,0,7.56-28.78q0-26.11-18.63-42Q90.26,20.94,63.81,20.94H19.58V173.31H35.45V38.3H64q20.31,0,32.58,9.31Q110.37,58,110.37,77.44q0,18.21-11.28,28.15-9.15,8.25-29.79,14l48,53.76h22.24l-41.65-46A52.46,52.46,0,0,0,118.68,106.83Z" transform="translate(-19.58 -20.94)"/><path class="cls-1" d="M59.78,116.22q0-3.39,7-4.23,14.82-1.92,17.35-3A30.2,30.2,0,0,0,98.51,96.53a35.2,35.2,0,0,0,5.29-18.64q0-15.45-10.79-24.78-10.38-8.67-25.82-8.68H40.74V173.31H56.19V139.66q19,21.59,30.05,33.65H107.8L64.38,124.68Q59.78,119.4,59.78,116.22Z" transform="translate(-19.58 -20.94)"/><polygon class="cls-1" points="202.09 40.84 202.09 23.48 141.34 23.48 141.34 72.15 196.6 72.15 196.6 54.82 156.8 54.82 156.8 40.84 202.09 40.84"/><path class="cls-1" d="M367.79,132.46a18.92,18.92,0,0,1-10-2.62,8.39,8.39,0,0,1-4.32-7.64q0-6.49,7.8-8.59,3.58-.83,13.08-.83,20,0,32.6-12.93t12.55-33.09q0-20.37-12.6-33.1T374.18,20.94h-96q-20.1,0-32.69,12.72t-12.59,33.1q0,20.14,12.55,33.09T278,112.78q9.5,0,13.08.83,7.8,2.1,7.8,8.59a8.39,8.39,0,0,1-4.32,7.64,18.93,18.93,0,0,1-10,2.62H221.67v-.05h-45.3V116.6h39.8V99.25H160.91v50.57H284.73q12.48,0,21.26-7.54t8.79-20.09q0-12.31-9.31-19.76-8.48-7-20.74-7h-6.57q-13.12,0-21.58-7.92t-8.46-20.76q0-13.08,8.46-20.78t21.58-7.68h96q13.13,0,21.58,7.68t8.46,20.78q0,12.85-8.46,20.76t-21.58,7.92h-6.56q-12.28,0-20.74,7-9.31,7.45-9.31,19.76,0,12.54,8.78,20.09t21.27,7.54h52.32V132.46Z" transform="translate(-19.58 -20.94)"/><path class="cls-1" d="M343.39,146.81Q334,137.66,334,122.94t9.42-24.08q9.41-9.36,24.23-9.36h6.56q9.74,0,16-6.24c4.17-4.17,6.25-9.48,6.25-16a22.32,22.32,0,0,0-6.25-16.19q-6.24-6.47-16-6.46h-96q-9.72,0-16,6.46a22.36,22.36,0,0,0-6.25,16.19c0,6.49,2.09,11.8,6.25,16s9.49,6.24,16,6.24h6.57q14.81,0,24.23,9.36t9.41,24.08q0,14.72-9.41,23.87T284.73,156H215.08v0H155.63V38.3h66V20.94H140.18V173.3H284.73q21.78,0,35.34-14.18a48.62,48.62,0,0,0,6.1-7.88,48.62,48.62,0,0,0,6.1,7.88q13.55,14.18,35.35,14.18h52.32V156H367.62Q352.8,156,343.39,146.81ZM326.17,94.75A50.19,50.19,0,0,0,320,86.64q-13.65-14.49-35.23-14.49H280.5q-9.33,0-9.32-5.07,0-5.51,7-5.5h96q7,0,7,5.5,0,5.07-9.31,5.07h-4.23q-21.58,0-35.24,14.49A50.19,50.19,0,0,0,326.17,94.75Z" transform="translate(-19.58 -20.94)"/><path class="cls-2" d="M67.22,62.77H56.83V97.13c1.6-1.2,4.32-2.19,8.19-3q4.38-.6,8.79-1.39Q87.39,90,87.39,78.06A13.07,13.07,0,0,0,81,66.54,24.14,24.14,0,0,0,67.22,62.77Z" transform="translate(-19.58 -20.94)"/></svg>